<?xml version="1.0" encoding="utf-8"?>
<!-- Generator: Adobe Illustrator 19.0.0, SVG Export Plug-In . SVG Version: 6.00 Build 0)  -->
<svg version="1.1" id="Layer_1" xmlns="http://www.w3.org/2000/svg" xmlns:xlink="http://www.w3.org/1999/xlink" x="0px" y="0px"
	 viewBox="0 0 96 96" style="enable-background:new 0 0 96 96;" xml:space="preserve">
<style type="text/css">
	.st0{fill:#333333;}
</style>
<g id="XMLID_2_">
	<path id="XMLID_6_" class="st0" d="M48,18c-2.2,0-4,1.5-5.2,3.8c-9.7,2.3-13.7,11-13.7,21.4v9.5c0,4.3-4.2,9.5-6.3,9.5v3.2h6.3
		h37.9h6.3v-3.2c-2.1,0-6.3-5.2-6.3-9.5v-9.5c0-10.4-4-19.1-13.7-21.4C52,19.5,50.2,18,48,18z M38.5,68.5c0,5.2,4.2,9.5,9.5,9.5
		s9.5-4.2,9.5-9.5H38.5z"/>
</g>
</svg>
